BOLT     (2008)  MKV 3D


PLOT:
The canine star of a fictional sci-fi/action show that believes his powers are real embarks on a cross country trek to save his co-star from a threat he believes is just as real.

INFO:


Format                           : Matroska
Format version                   : Version 2
File size                        : 9.37 GiB
Duration                         : 1h 36mn
Overall bit rate                 : 13.9 Mbps
Writing library                  : libmakemkv v1.6.16 (1.2.0/1.1.0) win(x64-release)

Video
ID                               : 1
Format                           : AVC
Format/Info                      : Advanced Video Codec
Format profile                   : High@L4.1
Format settings, CABAC           : Yes
Format settings, ReFrames        : 2 frames
Codec ID                         : V_MPEG4/ISO/AVC
Duration                         : 1h 36mn
Bit rate mode                    : Variable
Bit rate                         : 12.1 Mbps
Maximum bit rate                 : 30.0 Mbps
Width                            : 1 920 pixels
Height                           : 1 080 pixels
Display aspect ratio             : 16:9
Frame rate                       : 23.976 fps
Color space                      : YUV
Chroma subsampling               : 4:2:0
Bit depth                        : 8 bits
Scan type                        : Progressive
Bits/(Pixel*Frame)               : 0.244
Stream size                      : 8.17 GiB (87%)
Writing library                  : x264 core
Language                         : English
Color primaries                  : BT.709-5, BT.1361, IEC 61966-2-4, SMPTE RP177
Transfer characteristics         : BT.709-5, BT.1361
Matrix coefficients              : BT.709-5, BT.1361, IEC 61966-2-4 709, SMPTE RP177

Audio
ID                               : 2
Format                           : DTS
Format/Info                      : Digital Theater Systems
Format profile                   : ES
Codec ID                         : A_DTS
Duration                         : 1h 36mn
Bit rate mode                    : Constant
Bit rate                         : 1 510 Kbps
Channel(s)                       : 6 channels
Channel positions                : Front: L C R, Side: L R, LFE
Sampling rate                    : 48.0 KHz
Bit depth                        : 16 bits
Compression mode                 : Lossy
Delay relative to video          : 1s 1ms
Stream size                      : 1.02 GiB (11%)
Title                            : 3/2+1
Language                         : English

                  !!YOU NEED 3D EQUIPMENT TO WATCH THIS!!

                                    (LiG)	